# xmcd
#
# Track frame offsets:
#	150
#	10760
#	29162
#	42752
#	57542
#	68632
#	82082
#	99440
#	113770
#	124422
#	138530
#	154890
#	170265
#	185412
#
# Disc length: 2651
#
# Revision: 2
# Processed by: cddbd v1.5.1PL0 Copyright (c) Steve Scherf et al.
# Submitted via: DiscPlay 4.0.4
# Normalized: r1:DSETVAR1
#
DISCID=c10a590e
DTITLE=Various Artist - Mr Music Country 8/96
DYEAR=1900
DGENRE=
TTITLE0=Sammy Kershaw - Your tattoo
TTITLE1=Kent Cherry - Phnoe keeps on ringing
TTITLE2=Josh Logan - One thing my lady never puts into words
TTITLE3=Becky Hobbs - Country girl
TTITLE4=Mitch Sands - She's in it for the love
TTITLE5=Judy Bailey - Comfort
TTITLE6=Mike Ward - Two dollar bottle of wine
TTITLE7=Erik Moll - It aint't over till it's over
TTITLE8=Brandon Sandefur - I think I'm over gettin' over you
TTITLE9=Penny Gilley - That's more about love (Than I wanted to know)
TTITLE10=Don Walser - Don't Worry
TTITLE11=Randy Miles - Country kickin'
TTITLE12=Teresa Langworthy - My hands are full (Dealin' with these empty arms)
TTITLE13=Cole Garrity - Headin' for Dixie
EXTD=
EXTT0=
EXTT1=
EXTT2=
EXTT3=
EXTT4=
EXTT5=
EXTT6=
EXTT7=
EXTT8=
EXTT9=
EXTT10=
EXTT11=
EXTT12=
EXTT13=
PLAYORDER=
